<svg width="36" height="36" viewBox="0 0 36 36" fill="none" xmlns="http://www.w3.org/2000/svg">
<path d="M30.0718 24.7099C28.2662 22.5 26.9915 21.375 26.9915 15.2824C26.9915 9.70313 24.1424 7.71539 21.7975 6.75C21.486 6.62203 21.1928 6.32812 21.0979 6.0082C20.6865 4.60828 19.5334 3.375 18.0006 3.375C16.4678 3.375 15.314 4.60898 14.9068 6.00961C14.8119 6.33305 14.5187 6.62203 14.2072 6.75C11.8595 7.7168 9.01325 9.6975 9.01325 15.2824C9.00973 21.375 7.73497 22.5 5.92934 24.7099C5.18122 25.6254 5.83653 27 7.14504 27H28.8632C30.1647 27 30.8157 25.6212 30.0718 24.7099Z" stroke="#E4E7E9" stroke-width="2.25" stroke-linecap="round" stroke-linejoin="round"/>
<path d="M22.5 27V28.125C22.5 29.3185 22.0259 30.4631 21.182 31.307C20.3381 32.1509 19.1935 32.625 18 32.625C16.8065 32.625 15.6619 32.1509 14.818 31.307C13.9741 30.4631 13.5 29.3185 13.5 28.125V27" stroke="#E4E7E9" stroke-width="2.25" stroke-linecap="round" stroke-linejoin="round"/>
</svg>
