<svg width="44" height="28" viewBox="0 0 44 28" fill="none" xmlns="http://www.w3.org/2000/svg">
<path d="M36.001 1H27.601C26.1158 1 24.6914 1.58532 23.6412 2.62718C22.591 3.66905 22.001 5.08213 22.001 6.55556V26C22.001 24.8949 22.4435 23.8351 23.2311 23.0537C24.0188 22.2723 25.0871 21.8333 26.201 21.8333H36.001V1Z" stroke="#777F8C" stroke-width="1.26" stroke-linecap="round" stroke-linejoin="round"/>
<path d="M8 1H16.4C17.8852 1 19.3096 1.58532 20.3598 2.62718C21.41 3.66905 22 5.08213 22 6.55556V26C22 24.8949 21.5575 23.8351 20.7699 23.0537C19.9822 22.2723 18.9139 21.8333 17.8 21.8333H8V1Z" stroke="#777F8C" stroke-width="1.26" stroke-linecap="round" stroke-linejoin="round"/>
</svg>
