<svg width="22" height="22" viewBox="0 0 22 22" fill="none" xmlns="http://www.w3.org/2000/svg">
<path d="M18.5625 5.58594H15.6406L14.9445 3.63516C14.8964 3.50167 14.8083 3.38629 14.6922 3.30476C14.5761 3.22324 14.4376 3.17956 14.2957 3.17969H7.7043C7.41426 3.17969 7.1543 3.3623 7.05762 3.63516L6.35938 5.58594H3.4375C2.48789 5.58594 1.71875 6.35508 1.71875 7.30469V17.1016C1.71875 18.0512 2.48789 18.8203 3.4375 18.8203H18.5625C19.5121 18.8203 20.2812 18.0512 20.2812 17.1016V7.30469C20.2812 6.35508 19.5121 5.58594 18.5625 5.58594ZM11 15.3828C9.10078 15.3828 7.5625 13.8445 7.5625 11.9453C7.5625 10.0461 9.10078 8.50781 11 8.50781C12.8992 8.50781 14.4375 10.0461 14.4375 11.9453C14.4375 13.8445 12.8992 15.3828 11 15.3828ZM8.9375 11.9453C8.9375 12.4923 9.1548 13.0169 9.54159 13.4037C9.92839 13.7905 10.453 14.0078 11 14.0078C11.547 14.0078 12.0716 13.7905 12.4584 13.4037C12.8452 13.0169 13.0625 12.4923 13.0625 11.9453C13.0625 11.3983 12.8452 10.8737 12.4584 10.4869C12.0716 10.1001 11.547 9.88281 11 9.88281C10.453 9.88281 9.92839 10.1001 9.54159 10.4869C9.1548 10.8737 8.9375 11.3983 8.9375 11.9453Z" fill="#E4E7E9"/>
</svg>
