<svg width="52" height="52" viewBox="0 0 52 52" fill="none" xmlns="http://www.w3.org/2000/svg">
<rect width="52" height="52" rx="12" fill="#30323B"/>
<path d="M13 15C13 14.4696 13.2107 13.9609 13.5858 13.5858C13.9609 13.2107 14.4696 13 15 13H21C21.5304 13 22.0391 13.2107 22.4142 13.5858C22.7893 13.9609 23 14.4696 23 15V21C23 21.5304 22.7893 22.0391 22.4142 22.4142C22.0391 22.7893 21.5304 23 21 23H15C14.4696 23 13.9609 22.7893 13.5858 22.4142C13.2107 22.0391 13 21.5304 13 21V15Z" fill="#777F8C"/>
<path d="M13 31C13 30.4696 13.2107 29.9609 13.5858 29.5858C13.9609 29.2107 14.4696 29 15 29H21C21.5304 29 22.0391 29.2107 22.4142 29.5858C22.7893 29.9609 23 30.4696 23 31V37C23 37.5304 22.7893 38.0391 22.4142 38.4142C22.0391 38.7893 21.5304 39 21 39H15C14.4696 39 13.9609 38.7893 13.5858 38.4142C13.2107 38.0391 13 37.5304 13 37V31Z" fill="#777F8C"/>
<path d="M29 15C29 14.4696 29.2107 13.9609 29.5858 13.5858C29.9609 13.2107 30.4696 13 31 13H37C37.5304 13 38.0391 13.2107 38.4142 13.5858C38.7893 13.9609 39 14.4696 39 15V21C39 21.5304 38.7893 22.0391 38.4142 22.4142C38.0391 22.7893 37.5304 23 37 23H31C30.4696 23 29.9609 22.7893 29.5858 22.4142C29.2107 22.0391 29 21.5304 29 21V15Z" fill="#777F8C"/>
<path d="M29 31C29 30.4696 29.2107 29.9609 29.5858 29.5858C29.9609 29.2107 30.4696 29 31 29H37C37.5304 29 38.0391 29.2107 38.4142 29.5858C38.7893 29.9609 39 30.4696 39 31V37C39 37.5304 38.7893 38.0391 38.4142 38.4142C38.0391 38.7893 37.5304 39 37 39H31C30.4696 39 29.9609 38.7893 29.5858 38.4142C29.2107 38.0391 29 37.5304 29 37V31Z" fill="#777F8C"/>
</svg>
