<svg width="52" height="52" viewBox="0 0 52 52" fill="none" xmlns="http://www.w3.org/2000/svg">
<rect width="52" height="52" rx="12" fill="#30323B"/>
<path d="M14 17C13.4477 17 13 17.4477 13 18C13 18.5523 13.4477 19 14 19V17ZM38 19C38.5523 19 39 18.5523 39 18C39 17.4477 38.5523 17 38 17V19ZM14 19H38V17H14V19Z" fill="#777F8C"/>
<path d="M14 25C13.4477 25 13 25.4477 13 26C13 26.5523 13.4477 27 14 27V25ZM38 27C38.5523 27 39 26.5523 39 26C39 25.4477 38.5523 25 38 25V27ZM14 27H38V25H14V27Z" fill="#777F8C"/>
<path d="M14 33C13.4477 33 13 33.4477 13 34C13 34.5523 13.4477 35 14 35V33ZM38 35C38.5523 35 39 34.5523 39 34C39 33.4477 38.5523 33 38 33V35ZM14 35H38V33H14V35Z" fill="#777F8C"/>
</svg>
