<svg width="134" height="130" viewBox="0 0 134 130" fill="none" xmlns="http://www.w3.org/2000/svg">
<path fill-rule="evenodd" clip-rule="evenodd" d="M75.0785 15C48.738 15 37.495 31.8562 37.495 53.2505C37.495 56.2612 37.5988 59.5282 37.708 62.9653C38.1751 77.6612 38.7411 95.4673 31.712 109.654C25.2875 118.082 31.712 119.318 36.2091 116.461C43.1476 112.053 46.3455 115.816 46.1671 120.675C45.8459 129.427 52.5113 128.131 56.1251 124.889C60.7508 120.74 64.711 121.029 65.6144 123.507C68.3278 130.95 74.1421 132.517 80.3441 124.889C82.0296 123.13 86.4842 120.667 90.8186 124.889C94.4324 128.131 101.098 129.427 100.777 120.675C100.598 115.816 103.796 112.053 110.735 116.461C115.232 119.318 121.656 118.082 115.232 109.654C108.203 95.4678 108.769 77.6625 109.236 62.9669C109.346 59.5292 109.45 56.2617 109.45 53.2505C109.45 38.0151 96.9219 15 75.0785 15ZM59.0173 46.7674C52.5928 46.7674 51.6291 63.9477 59.0173 63.9477C66.4055 63.9477 65.4418 46.7674 59.0173 46.7674ZM87.6064 46.7674C81.1819 46.7674 80.2182 63.9477 87.6064 63.9477C94.9946 63.9477 94.0309 46.7674 87.6064 46.7674Z" fill="#30323B"/>
<ellipse cx="130.507" cy="15.0962" rx="2.49375" ry="2.51613" fill="#30323B"/>
<ellipse cx="127.18" cy="35.2262" rx="1.6625" ry="1.67742" fill="#30323B"/>
<ellipse cx="119.662" cy="67.6774" rx="1.6625" ry="1.67742" fill="url(#paint0_linear_1105_13864)"/>
<ellipse cx="132.753" cy="87.6448" rx="1.24688" ry="1.25807" fill="#30323B"/>
<circle cx="26.5" cy="26.5" r="1.5" fill="#777F8C"/>
<ellipse cx="2.07812" cy="91.8409" rx="2.07812" ry="2.09678" fill="#94A3B8"/>
<ellipse cx="20.7816" cy="93.9352" rx="1.6625" ry="1.67742" fill="#30323B"/>
<path d="M120.115 15.0977L121.732 23.9506L130.506 25.5816L121.732 27.2125L120.115 36.0654L118.499 27.2125L109.725 25.5816L118.499 23.9506L120.115 15.0977Z" fill="#94A3B8"/>
<path d="M126.349 86.3867L127.384 92.0526L132.999 93.0964L127.384 94.1402L126.349 99.8061L125.315 94.1402L119.699 93.0964L125.315 92.0526L126.349 86.3867Z" fill="#94A3B8"/>
<path d="M99.7488 0L100.913 6.37415L107.23 7.5484L100.913 8.72266L99.7488 15.0968L98.585 8.72266L92.2676 7.5484L98.585 6.37415L99.7488 0Z" fill="url(#paint1_linear_1105_13864)"/>
<path d="M12.0527 91.418L13.6691 100.271L22.4434 101.902L13.6691 103.533L12.0527 112.386L10.4363 103.533L1.66211 101.902L10.4363 100.271L12.0527 91.418Z" fill="#777F8C"/>
<path d="M20.366 57.8711L21.2065 62.4746L25.7691 63.3227L21.2065 64.1708L20.366 68.7743L19.5255 64.1708L14.9629 63.3227L19.5255 62.4746L20.366 57.8711Z" fill="url(#paint2_linear_1105_13864)"/>
<path d="M20.0656 13L21.1648 19.02L27.1313 20.129L21.1648 21.2381L20.0656 27.2581L18.9665 21.2381L13 20.129L18.9665 19.02L20.0656 13Z" fill="#30323B"/>
<defs>
<linearGradient id="paint0_linear_1105_13864" x1="121.678" y1="65.1194" x2="117.598" y2="68.3129" gradientUnits="userSpaceOnUse">
<stop stop-color="#2ED8F1"/>
<stop offset="1" stop-color="#4D77C6"/>
</linearGradient>
<linearGradient id="paint1_linear_1105_13864" x1="108.82" y1="-3.96291" x2="90.4594" y2="10.4082" gradientUnits="userSpaceOnUse">
<stop stop-color="#2ED8F1"/>
<stop offset="1" stop-color="#4D77C6"/>
</linearGradient>
<linearGradient id="paint2_linear_1105_13864" x1="26.9173" y1="55.009" x2="13.657" y2="65.3881" gradientUnits="userSpaceOnUse">
<stop stop-color="#2ED8F1"/>
<stop offset="1" stop-color="#4D77C6"/>
</linearGradient>
</defs>
</svg>
